<?xml version="1.0" encoding="UTF-8"?>
<svg id="Layer_1" data-name="Layer 1" xmlns="http://www.w3.org/2000/svg" viewBox="0 0 2000 2000">
  <defs>
    <style>
      .cls-1 {
        fill: #72bf44;
        stroke-width: 0px;
      }
    </style>
  </defs>
  <path class="cls-1" d="m996.47,889.16c4.79-31.67,7.5-61.73,7.93-89.68-53.3-42.61-118.73-71.67-186.06-89.09-10.26,23.66-16.65,50.88-14.75,83.41,0,6.43.38,12.77.98,19.03,67.89,14.57,132.92,39.45,191.89,76.33Z"/>
  <path class="cls-1" d="m991.55,667.81c-30.93-25.64-69.06-44.39-108.47-53.3-17.1,23.63-40.87,49.61-58.13,82.68,63.51,13.23,124.48,36.25,179.08,71.59-1.31-37.49-5.89-71.17-12.47-100.97Z"/>
  <path class="cls-1" d="m973.95,990.21c7.32-25.36,13.67-50.12,18.16-73.65-54.67-40.41-118.84-69.55-185.25-88.22,14.84,82.87,81.95,147.97,167.09,161.87Z"/>
  <path class="cls-1" d="m926.35,511.73c-4.53,20.83-14.8,56.97-34.74,89.54,31.92,5.03,62.47,15.33,90.72,30.74-18.68-62.71-44.11-103.46-55.99-120.29Z"/>
  <path class="cls-1" d="m877.4,1090.37c3.58-58.1-22.91-114.7-72.31-147.87-6.6,42.99-7.93,86.98-2.93,129.57,27.49,1.91,51.41,7.9,75.24,18.3Z"/>
  <path class="cls-1" d="m599.16,925.42c-25.76.44-49.78-3.97-65.19-7.75,9.84,20.7,27.72,51.02,58.07,79.44-.71-24.36,2.1-48.29,7.12-71.69Z"/>
  <path class="cls-1" d="m776.64,1070.42c-1.65-46.37,3.58-92.06,14.32-136.62-1.2-.65-2.21-1.5-3.43-2.11-26.31-15.17-51.49-20.07-75.15-20.42-8.7,49.92-9.88,101.53.13,150.04,19.38,4.8,40.84,7.84,64.13,9.12Z"/>
  <path class="cls-1" d="m686.14,1053.63c-4.97-47.83-.74-95.6,10.18-142.15-27.55,1.88-52.62,8.96-74.19,12.21-2.04.31-4.08.33-6.13.56-4.04,32.12-3.62,64.95,3.67,95.11,18.7,13.22,40.5,25.22,66.47,34.27Z"/>
  <path class="cls-1" d="m1126.76,1092.49c25.97-6.52,51.27-10.98,75.18-12.6,5-42.77,3.73-86.92-2.89-130.08-47.9,32.16-74.04,86.41-72.29,142.68Z"/>
  <path class="cls-1" d="m1291.62,1068.69c9.97-48.57,8.85-100.14.16-150.06-23.67.36-48.84,5.25-75.16,20.43-1.22.61-2.23,1.46-3.43,2.1,10.75,44.55,15.96,90.22,14.36,136.62,23.26-1.26,44.7-4.3,64.06-9.09Z"/>
  <path class="cls-1" d="m1499.54,1056.51c4.57-48.83-2.38-93.19-7.57-117.27-27.64,54.77-103.27,161.21-275.08,165.46-38.51.95-81.45,9.87-126.14,25.57-6.3,2.21-74.28,31.12-89.29,41.27,3.75-7.01,34.26-68.42,55.88-184.66,73.01-18.43,127.16-76.96,146.97-150.38-37.73,19.12-73.82,41.09-106.65,66.72-5.67,4.47-13.92,3.51-18.41-2.13-4.49-5.65-3.53-13.86,2.14-18.33,40.07-27.09,83.09-48.49,127.29-66.28,1.33-7.5,2.84-14.94,3.44-22.66,3.18-40.52-2.5-75.66-13.91-106.33-40,22.43-77.67,49.7-110.29,81.04-5.15,5.06-13.45,5.01-18.54-.12-5.42-5.41-4.93-14.45,1.01-19.26,37.47-30.63,78.34-55.51,121.82-75.48-17.73-39.33-45.04-70.65-75.83-95.18-.31.32-.25.77-.66,1.06-23,17.44-42.58,39.49-57.09,63.57-3.73,6.19-11.79,8.19-18.01,4.48-6.22-3.72-8.23-11.75-4.5-17.94,19.18-24.41,43.05-44.22,69.35-59.5-57.99-42.42-124.01-63.11-155.97-71.17,178.2,250.53,12.12,629.7-15.25,662.93-14.29-15.11-34.05-30.01-56.59-42.82-28.55-14.43-56.21-20.88-90.43-21.75-171.83-4.28-247.44-110.74-275.06-165.5-5.2,24.12-12.21,69.04-7.57,117.92,15.85-8.33,32.42-15.36,50.32-19.51,7.06-1.66,14.15,2.69,15.82,9.73,1.67,7.04-2.7,14.08-9.76,15.75-18.18,1.28-36.65,4.65-54.27,10.83,4.62,30.45,14.45,61.52,32.39,89.72,28.72-22.04,59.69-40.9,93.26-56,6.6-2.97,14.36-.05,17.35,6.53,2.98,6.57.05,14.3-6.55,17.27-32.95,11.2-65.15,26.71-95.09,45.48,19.71,25.89,47.33,48.46,85.81,64.28,32.97-30.57,68.76-58.59,108.72-81.28,6.29-3.57,14.29-1.39,17.88,4.87,3.83,6.61,1.02,15.2-5.95,18.34-36.53,16.76-71.07,38.76-103.68,63.5,78.26,24.26,163.01-2.15,204.33-74.38,25.58,18.41,43.86,45.26,30.12,83.37-7.95,22.06-28.63,45.17-79.1,45.17-29.43,0-91.7-18.15-150.55,17.77-38.99,23.8-38.66,40.25-38.66,40.25,0,0,61.65-27.84,110.14-20.36,48.85,7.49,73.48,23.08,128.71,4.69-30.01,34.5-45.42,131.85,35.17,161.11-41.47-47.6-1.87-127.29,24.14-134.78,27.76,69.47,148.01,74.97,213.72,46.83,85.74-36.69,169.07-24.05,210.18-5.87-47.09-71.09-156.9-56.59-198.01-45.19-41.12,11.4-145.73,32.6-163.02-20.87-25.01-77.36,79.52-138.94,170.19-165.91,41.06,73.15,126.37,99.94,205.07,75.55-32.6-24.74-67.14-46.75-103.67-63.51-6.59-2.99-9.49-10.73-6.49-17.29,3-6.55,10.77-9.45,17.36-6.46,40.41,22.63,76.51,51,109.77,81.81,38.49-15.82,65.82-38.54,85.53-64.46-29.46-18.44-61.1-33.82-93.49-44.79-6.88-2.25-10.63-9.63-8.37-16.48,2.37-7.33,10.83-11.03,17.86-7.82,7.54,1.32,61.84,31.83,93.51,55.55,17.57-27.8,27.36-58.39,32.01-88.41-16.95-5.99-34.45-10.36-51.87-11.36-7.25-.42-12.78-6.6-12.36-13.83,3.71-23.16,40.84-7.08,66.48,6.91Z"/>
  <path class="cls-1" d="m1318.04,1061c26.11-9.1,48-21.17,66.77-34.48,6.86-30.29,7.22-62.95,3.08-94.92-1.96-.22-3.91-.24-5.86-.53-21.57-3.25-46.64-10.32-74.19-12.21,10.92,46.56,15.15,94.3,10.21,142.15Z"/>
  <path class="cls-1" d="m1470.2,925.03c-15.48,3.8-39.64,8.25-65.55,7.76,5.15,23.37,8.05,47.25,7.54,71.62,30.31-28.4,48.17-58.7,58.01-79.38Z"/>
</svg>